<svg width="80" height="80" viewBox="0 0 80 80" fill="none" xmlns="http://www.w3.org/2000/svg">
  <!-- Light spot effect for magical atmosphere -->
  <defs>
    <radialGradient id="lightSpot" cx="0.5" cy="0.5" r="0.8">
      <stop offset="0%" stop-color="#FFFFFF" stop-opacity="0.8"/>
      <stop offset="40%" stop-color="#F0F8FF" stop-opacity="0.4"/>
      <stop offset="80%" stop-color="#E0FFFF" stop-opacity="0.2"/>
      <stop offset="100%" stop-color="#FFFFFF" stop-opacity="0"/>
    </radialGradient>
    <radialGradient id="lightSparkle" cx="0.5" cy="0.5" r="0.5">
      <stop offset="0%" stop-color="#FFFFFF" stop-opacity="1"/>
      <stop offset="50%" stop-color="#F0F8FF" stop-opacity="0.8"/>
      <stop offset="100%" stop-color="#FFFFFF" stop-opacity="0"/>
    </radialGradient>
  </defs>
  
  <!-- Main light spot -->
  <circle cx="40" cy="40" r="30" fill="url(#lightSpot)"/>
  
  <!-- Sparkle particles -->
  <circle cx="25" cy="25" r="2" fill="url(#lightSparkle)"/>
  <circle cx="55" cy="30" r="1.5" fill="url(#lightSparkle)"/>
  <circle cx="35" cy="55" r="1" fill="url(#lightSparkle)"/>
  <circle cx="60" cy="50" r="1.5" fill="url(#lightSparkle)"/>
  <circle cx="20" cy="50" r="1" fill="url(#lightSparkle)"/>
  <circle cx="50" cy="20" r="1" fill="url(#lightSparkle)"/>
  
  <!-- Small sparkles -->
  <circle cx="30" cy="35" r="0.8" fill="#FFFFFF" opacity="0.8"/>
  <circle cx="45" cy="45" r="0.6" fill="#FFFFFF" opacity="0.6"/>
  <circle cx="35" cy="65" r="0.5" fill="#FFFFFF" opacity="0.7"/>
  <circle cx="65" cy="35" r="0.5" fill="#FFFFFF" opacity="0.7"/>
  <circle cx="15" cy="35" r="0.4" fill="#FFFFFF" opacity="0.5"/>
  <circle cx="55" cy="60" r="0.4" fill="#FFFFFF" opacity="0.5"/>
  
  <!-- Twinkling effect dots -->
  <circle cx="40" cy="20" r="0.3" fill="#F0F8FF" opacity="0.9"/>
  <circle cx="60" cy="25" r="0.3" fill="#F0F8FF" opacity="0.8"/>
  <circle cx="20" cy="60" r="0.3" fill="#F0F8FF" opacity="0.8"/>
  <circle cx="70" cy="45" r="0.2" fill="#F0F8FF" opacity="0.7"/>
  <circle cx="10" cy="40" r="0.2" fill="#F0F8FF" opacity="0.7"/>
  <circle cx="45" cy="70" r="0.2" fill="#F0F8FF" opacity="0.6"/>
</svg>