<svg width="32" height="32" viewBox="0 0 32 32" fill="none" xmlns="http://www.w3.org/2000/svg">
  <!-- Beautiful single flower -->
  <defs>
    <radialGradient id="singlePetal" cx="0.5" cy="0.3" r="0.8">
      <stop offset="0%" stop-color="#FFE4E1"/>
      <stop offset="50%" stop-color="#FF69B4"/>
      <stop offset="100%" stop-color="#FF1493"/>
    </radialGradient>
    <radialGradient id="flowerCore" cx="0.5" cy="0.5" r="0.6">
      <stop offset="0%" stop-color="#FFFF00"/>
      <stop offset="100%" stop-color="#FFD700"/>
    </radialGradient>
    <linearGradient id="flowerStem" x1="0" y1="0" x2="0" y2="1">
      <stop offset="0%" stop-color="#90EE90"/>
      <stop offset="100%" stop-color="#228B22"/>
    </linearGradient>
  </defs>
  
  <!-- Stem -->
  <path d="M16 22 Q16 15 16 8" stroke="url(#flowerStem)" stroke-width="2" fill="none"/>
  
  <!-- Flower petals (6 petals in two layers) -->
  <!-- Back layer petals -->
  <ellipse cx="16" cy="6" rx="3" ry="5" fill="url(#singlePetal)" transform="rotate(0 16 6)"/>
  <ellipse cx="19" cy="8" rx="3" ry="5" fill="url(#singlePetal)" transform="rotate(60 19 8)"/>
  <ellipse cx="17" cy="11" rx="3" ry="5" fill="url(#singlePetal)" transform="rotate(120 17 11)"/>
  
  <!-- Front layer petals -->
  <ellipse cx="13" cy="8" rx="3" ry="5" fill="url(#singlePetal)" transform="rotate(-60 13 8)"/>
  <ellipse cx="15" cy="11" rx="3" ry="5" fill="url(#singlePetal)" transform="rotate(-120 15 11)"/>
  <ellipse cx="16" cy="6" rx="2" ry="4" fill="#FFB6C1" opacity="0.5"/>
  
  <!-- Flower center -->
  <circle cx="16" cy="8.5" r="2.5" fill="url(#flowerCore)"/>
  
  <!-- Center details -->
  <circle cx="15.5" cy="8" r="0.3" fill="#FFA500" opacity="0.8"/>
  <circle cx="16.5" cy="8" r="0.3" fill="#FFA500" opacity="0.8"/>
  <circle cx="16" cy="9" r="0.3" fill="#FFA500" opacity="0.8"/>
  <circle cx="15" cy="8.5" r="0.2" fill="#FFA500" opacity="0.6"/>
  <circle cx="17" cy="8.5" r="0.2" fill="#FFA500" opacity="0.6"/>
  
  <!-- Small leaf on stem -->
  <path d="M16 16 Q12 14 10 16 Q12 18 16 16" fill="#32CD32"/>
  <path d="M16 16 Q12 14 10 16 Q12 18 16 16" fill="#90EE90" opacity="0.6"/>
  
  <!-- Petal highlights -->
  <ellipse cx="16" cy="4" rx="1.5" ry="2.5" fill="#FFE4E1" opacity="0.4"/>
  <ellipse cx="18" cy="6" rx="1.5" ry="2.5" fill="#FFE4E1" opacity="0.4"/>
  
  <!-- Ground shadow -->
  <ellipse cx="16" cy="22.5" rx="4" ry="1" fill="#000000" opacity="0.15"/>
</svg>